<svg width="186" height="236" viewBox="0 0 186 236" fill="none" xmlns="http://www.w3.org/2000/svg">
<path d="M5 14.3598C5 9.19053 9.19053 5 14.3598 5H107.958V51.7991C107.958 56.9683 112.148 61.1589 117.318 61.1589H164.117V192.196C164.117 197.366 159.926 201.556 154.757 201.556H14.3598C9.19054 201.556 5 197.366 5 192.196V14.3598Z" fill="white"/>
<path d="M107.958 5V51.7991C107.958 56.9683 112.148 61.1589 117.318 61.1589H164.117L107.958 5Z" fill="white"/>
<path d="M107.958 5H14.3598C9.19053 5 5 9.19053 5 14.3598V192.196C5 197.366 9.19054 201.556 14.3598 201.556H154.757C159.926 201.556 164.117 197.366 164.117 192.196V61.1589M107.958 5V51.7991C107.958 56.9683 112.148 61.1589 117.318 61.1589H164.117M107.958 5L164.117 61.1589" stroke="#00162B" stroke-width="9.35981"/>
<path d="M33.08 98.5995H136.038M33.08 121.999H136.038M33.08 145.399H136.038" stroke="#00162B" stroke-opacity="0.5" stroke-width="9.35981"/>
<path d="M185.738 176.378L142.168 116.756L98.5979 176.378L142.168 236L185.738 176.378Z" fill="#0070D7"/>
<path d="M185.738 162.62L142.168 102.998L98.5979 162.62L142.168 222.242L185.738 162.62Z" fill="#2883D7"/>
<path d="M185.74 148.861L142.17 89.2391L98.5999 148.861L142.17 208.483L185.74 148.861Z" fill="#2295FF"/>
</svg>
