<svg width="789" height="250" viewBox="0 0 789 250" fill="none" xmlns="http://www.w3.org/2000/svg">
<path d="M137.019 137.019L68.5096 43.2692L0 137.019L68.5096 230.769L137.019 137.019Z" fill="#0070D7"/>
<path d="M137.019 115.385L68.5096 21.6346L0 115.385L68.5096 209.135L137.019 115.385Z" fill="#2883D7"/>
<path d="M137.019 93.75L68.5096 0L0 93.75L68.5096 187.5L137.019 93.75Z" fill="#2295FF"/>
<path d="M161.692 118.615C161.692 163.846 196.077 200.538 239 200.538C255.846 200.538 274.769 193.846 281.231 180V198.231H314.692V117H240.846V148.615H277.077C269.923 160.154 256.769 167.538 241.308 167.538C215 167.538 195.615 145.846 195.615 118.615C195.615 90 215 67.3846 241.308 67.3846C261.154 67.3846 277.077 81.2308 282.846 101.077L312.846 84.4615C300.846 54.9231 273.846 34.3846 241.308 34.3846C196.077 34.3846 161.692 72 161.692 118.615ZM340.731 36.4615V198.231H374.654V36.4615H340.731ZM390.578 167.538C391.731 185.308 407.654 200.538 428.885 200.538C448.501 200.538 460.962 192.462 470.654 183.692V198.231H504.347V127.385C504.347 94.8462 483.347 80.5385 446.654 80.5385C429.578 80.5385 408.808 85.8462 396.578 92.5385L404.424 119.308C411.578 115.846 433.27 111.923 448.962 112.615C460.731 113.308 469.731 116.538 470.193 123.692L470.424 125.538L424.501 129.692C401.654 131.538 389.193 149.769 390.578 167.538ZM421.962 163.154C421.962 158.077 426.578 153.923 438.578 152.308L470.654 147.923V152.538C469.962 158.538 454.731 173.077 436.731 173.077C427.039 173.077 421.962 168.462 421.962 163.154ZM523.638 140.538C523.638 173.769 549.945 200.538 582.253 200.538C606.945 200.538 628.407 184.615 636.715 162L604.638 152.769C600.715 161.308 592.868 167.077 582.253 167.077C566.791 167.077 557.099 155.538 557.099 140.538C557.099 124.385 566.791 111.923 582.253 111.923C592.176 111.923 600.022 117.462 604.176 125.769L635.561 115.846C626.33 95.0769 605.791 80.5385 582.253 80.5385C549.945 80.5385 523.638 107.308 523.638 140.538ZM649.163 140.538C649.163 173.769 675.471 200.538 707.779 200.538C732.24 200.538 753.702 186 762.702 164.538L730.625 156.923C726.471 164.538 717.933 168.923 707.779 168.923C693.933 168.923 684.471 159.692 682.394 146.769H767.087C767.317 144.462 767.548 142.154 767.548 139.846C767.317 107.077 740.548 80.5385 707.779 80.5385C675.471 80.5385 649.163 107.308 649.163 140.538ZM707.779 110.077C719.548 110.077 728.548 117 732.471 127.385H684.01C687.702 117 696.24 110.077 707.779 110.077Z" fill="#00162B"/>
</svg>
